<?xml version="1.0" standalone="no"?><svg xmlns="http://www.w3.org/2000/svg" viewBox="0 0 1440 320"><path fill="#fff" fill-opacity="1" d="M0,32L14.1,58.7C28.2,85,56,139,85,160C112.9,181,141,171,169,165.3C197.6,160,226,160,254,144C282.4,128,311,96,339,96C367.1,96,395,128,424,160C451.8,192,480,224,508,197.3C536.5,171,565,85,593,48C621.2,11,649,21,678,64C705.9,107,734,181,762,202.7C790.6,224,819,192,847,160C875.3,128,904,96,932,90.7C960,85,988,107,1016,138.7C1044.7,171,1073,213,1101,234.7C1129.4,256,1158,256,1186,261.3C1214.1,267,1242,277,1271,250.7C1298.8,224,1327,160,1355,144C1383.5,128,1412,160,1426,176L1440,192L1440,320L1425.9,320C1411.8,320,1384,320,1355,320C1327.1,320,1299,320,1271,320C1242.4,320,1214,320,1186,320C1157.6,320,1129,320,1101,320C1072.9,320,1045,320,1016,320C988.2,320,960,320,932,320C903.5,320,875,320,847,320C818.8,320,791,320,762,320C734.1,320,706,320,678,320C649.4,320,621,320,593,320C564.7,320,536,320,508,320C480,320,452,320,424,320C395.3,320,367,320,339,320C310.6,320,282,320,254,320C225.9,320,198,320,169,320C141.2,320,113,320,85,320C56.5,320,28,320,14,320L0,320Z"></path></svg>